<svg viewBox="-2.5 -46.968414 206 95.13468" stroke="DarkGoldenRod" stroke-width="1" fill="transparent" xmlns="http://www.w3.org/2000/svg" xmlns:xlink="http://www.w3.org/1999/xlink" width="158.74998mm" height="79.37499mm" >
  <title>corridor</title>
  <polyline fill="transparent" stroke="#2c3e50" stroke-width="1" points="0,16.256657 5,9.52416 10,-0.7407875 15,-5.113077 20,-12.46344 25,-14.181818 30,-13.664997 35,-16.968414 40,-13.053362 45,-8.918928 50,-3.9631462 55,5.583227 60,11.3565445 65,19.898518 70,26.487354 75,30.21449 80,36.620407 85,44.28161 90,42.794395 95,47.166267 100,43.641438 105,38.299053 110,36.73313 115,29.371346 120,23.518091 125,16.727957 130,10.199265 135,0.5402031 140,-2.986 145,-7.6176243 150,-13.080257 155,-12.572243 160,-13.254732 165,-11.73764 170,-7.987093 175,-5.6208267 180,4.0353155 185,11.388349 190,14.974623 195,23.214117 200,33.207924"/>
  <polyline fill="transparent" stroke="#2c3e50" stroke-width="1" points="0,-13.743343 5,-20.47584 10,-30.740788 15,-35.113075 20,-42.46344 25,-44.181816 30,-43.664997 35,-46.968414 40,-43.05336 45,-38.91893 50,-33.963146 55,-24.416773 60,-18.643456 65,-10.101482 70,-3.5126448 75,0.21449089 80,6.620405 85,14.2816105 90,12.794395 95,17.166267 100,13.641438 105,8.299053 110,6.7331314 115,-0.6286545 120,-6.481909 125,-13.272044 130,-19.800735 135,-29.459797 140,-32.986 145,-37.617622 150,-43.080257 155,-42.572243 160,-43.25473 165,-41.73764 170,-37.98709 175,-35.620827 180,-25.964684 185,-18.61165 190,-15.025377 195,-6.785883 200,3.207922"/>
  <circle  fill="transparent" stroke="#dfe6e9" stroke-width="0.5" cx="2.5" cy="-2.109591" r="5" />
  <circle  fill="transparent" stroke="#27ae60" stroke-width="1.2" cx="7.5" cy="-11.49898" r="5" />
  <circle  fill="transparent" stroke="#b2bec3" stroke-width="0.5" cx="12.5" cy="-17.64172" r="5" />
  <circle  fill="transparent" stroke="#b2bec3" stroke-width="0.5" cx="17.5" cy="-23.59151" r="5" />
  <circle  fill="transparent" stroke="#b2bec3" stroke-width="0.5" cx="22.5" cy="-26.21614" r="5" />
  <circle  fill="transparent" stroke="#b2bec3" stroke-width="0.5" cx="27.5" cy="-27.38886" r="5" />
  <circle  fill="transparent" stroke="#b2bec3" stroke-width="0.5" cx="32.5" cy="-30.496908" r="5" />
  <circle  fill="transparent" stroke="#b2bec3" stroke-width="0.5" cx="37.5" cy="-29.24178" r="5" />
  <circle  fill="transparent" stroke="#b2bec3" stroke-width="0.5" cx="42.5" cy="-25.055748" r="5" />
  <circle  fill="transparent" stroke="#b2bec3" stroke-width="0.5" cx="47.5" cy="-21.6633" r="5" />
  <circle  fill="transparent" stroke="#b2bec3" stroke-width="0.5" cx="52.5" cy="-14.809914" r="5" />
  <circle  fill="transparent" stroke="#b2bec3" stroke-width="0.5" cx="57.5" cy="-6.6989107" r="5" />
  <circle  fill="transparent" stroke="#b2bec3" stroke-width="0.5" cx="62.5" cy="-0.41241026" r="5" />
  <circle  fill="transparent" stroke="#b2bec3" stroke-width="0.5" cx="67.5" cy="6.6321454" r="5" />
  <circle  fill="transparent" stroke="#b2bec3" stroke-width="0.5" cx="72.5" cy="12.061422" r="5" />
  <circle  fill="transparent" stroke="#b2bec3" stroke-width="0.5" cx="77.5" cy="19.242867" r="5" />
  <circle  fill="transparent" stroke="#b2bec3" stroke-width="0.5" cx="82.5" cy="25.494602" r="5" />
  <circle  fill="transparent" stroke="#b2bec3" stroke-width="0.5" cx="87.5" cy="26.092348" r="5" />
  <circle  fill="transparent" stroke="#b2bec3" stroke-width="0.5" cx="92.5" cy="29.849226" r="5" />
  <circle  fill="transparent" stroke="#b2bec3" stroke-width="0.5" cx="97.5" cy="29.274128" r="5" />
  <circle  fill="transparent" stroke="#b2bec3" stroke-width="0.5" cx="102.5" cy="26.601328" r="5" />
  <circle  fill="transparent" stroke="#b2bec3" stroke-width="0.5" cx="107.5" cy="23.272823" r="5" />
  <circle  fill="transparent" stroke="#b2bec3" stroke-width="0.5" cx="112.5" cy="17.932941" r="5" />
  <circle  fill="transparent" stroke="#b2bec3" stroke-width="0.5" cx="117.5" cy="11.439777" r="5" />
  <circle  fill="transparent" stroke="#b2bec3" stroke-width="0.5" cx="122.5" cy="5.693913" r="5" />
  <circle  fill="transparent" stroke="#b2bec3" stroke-width="0.5" cx="127.5" cy="-1.9683113" r="5" />
  <circle  fill="transparent" stroke="#b2bec3" stroke-width="0.5" cx="132.5" cy="-10.073168" r="5" />
  <circle  fill="transparent" stroke="#b2bec3" stroke-width="0.5" cx="137.5" cy="-15.481519" r="5" />
  <circle  fill="transparent" stroke="#b2bec3" stroke-width="0.5" cx="142.5" cy="-22.288204" r="5" />
  <circle  fill="transparent" stroke="#b2bec3" stroke-width="0.5" cx="147.5" cy="-27.570484" r="5" />
  <circle  fill="transparent" stroke="#b2bec3" stroke-width="0.5" cx="152.5" cy="-28.203619" r="5" />
  <circle  fill="transparent" stroke="#b2bec3" stroke-width="0.5" cx="157.5" cy="-28.098434" r="5" />
  <circle  fill="transparent" stroke="#b2bec3" stroke-width="0.5" cx="162.5" cy="-27.174578" r="5" />
  <circle  fill="transparent" stroke="#b2bec3" stroke-width="0.5" cx="167.5" cy="-25.454441" r="5" />
  <circle  fill="transparent" stroke="#b2bec3" stroke-width="0.5" cx="172.5" cy="-23.532448" r="5" />
  <circle  fill="transparent" stroke="#b2bec3" stroke-width="0.5" cx="177.5" cy="-15.593561" r="5" />
  <circle  fill="transparent" stroke="#b2bec3" stroke-width="0.5" cx="182.5" cy="-6.989985" r="5" />
  <circle  fill="transparent" stroke="#b2bec3" stroke-width="0.5" cx="187.5" cy="-2.4434595" r="5" />
  <circle  fill="transparent" stroke="#b2bec3" stroke-width="0.5" cx="192.5" cy="5.4786153" r="5" />
  <circle  fill="transparent" stroke="#b2bec3" stroke-width="0.5" cx="197.5" cy="12.777657" r="5" />
  <circle  fill="#e67e22" stroke="transparent" cx="0.030000001" cy="-0" r="2" />
  <path stroke="#e67e22" stroke-width="1" d="M0.030000001 -0 L5.03 -0"/>
</svg>
