<svg viewBox="-0.96921194 -0.8982635 2.9384236 2.796527" stroke="DarkGoldenRod" stroke-width="1" fill="transparent" xmlns="http://www.w3.org/2000/svg" xmlns:xlink="http://www.w3.org/1999/xlink" width="400mm" height="400mm" >
  <title>spiral</title>
  <circle  fill="#e67e22" stroke="transparent" cx="0" cy="-0" r="0.02" />
  <circle  fill="#2c3e50" stroke="transparent" cx="0" cy="-0" r="0.02" />
  <circle  fill="#e67e22" stroke="transparent" cx="0.019371662" cy="-0.004973798" r="0.02" />
  <circle  fill="#2c3e50" stroke="transparent" cx="-0.019371662" cy="0.0049738013" r="0.02" />
  <circle  fill="#e67e22" stroke="transparent" cx="0.035052266" cy="-0.019270148" r="0.02" />
  <circle  fill="#2c3e50" stroke="transparent" cx="-0.035052266" cy="0.019270148" r="0.02" />
  <circle  fill="#e67e22" stroke="transparent" cx="0.043738116" cy="-0.041072827" r="0.02" />
  <circle  fill="#2c3e50" stroke="transparent" cx="-0.043738108" cy="0.041072834" r="0.02" />
  <circle  fill="#e67e22" stroke="transparent" cx="0.042866137" cy="-0.06754623" r="0.02" />
  <circle  fill="#2c3e50" stroke="transparent" cx="-0.042866126" cy="0.06754624" r="0.02" />
  <circle  fill="#e67e22" stroke="transparent" cx="0.030901698" cy="-0.095105655" r="0.02" />
  <circle  fill="#2c3e50" stroke="transparent" cx="-0.03090171" cy="0.09510565" r="0.02" />
  <circle  fill="#e67e22" stroke="transparent" cx="0.0075348597" cy="-0.1197632" r="0.02" />
  <circle  fill="#2c3e50" stroke="transparent" cx="-0.007534864" cy="0.1197632" r="0.02" />
  <circle  fill="#e67e22" stroke="transparent" cx="-0.026233401" cy="-0.13752021" r="0.02" />
  <circle  fill="#2c3e50" stroke="transparent" cx="0.026233396" cy="0.13752021" r="0.02" />
  <circle  fill="#e67e22" stroke="transparent" cx="-0.0681247" cy="-0.14477232" r="0.02" />
  <circle  fill="#2c3e50" stroke="transparent" cx="0.06812471" cy="0.14477232" r="0.02" />
  <circle  fill="#e67e22" stroke="transparent" cx="-0.11473631" cy="-0.13869238" r="0.02" />
  <circle  fill="#2c3e50" stroke="transparent" cx="0.114736356" cy="0.13869235" r="0.02" />
  <circle  fill="#e67e22" stroke="transparent" cx="-0.16180341" cy="-0.11755704" r="0.02" />
  <circle  fill="#2c3e50" stroke="transparent" cx="0.16180345" cy="0.11755699" r="0.02" />
  <circle  fill="#e67e22" stroke="transparent" cx="-0.20455085" cy="-0.08098737" r="0.02" />
  <circle  fill="#2c3e50" stroke="transparent" cx="0.20455088" cy="0.080987304" r="0.02" />
  <circle  fill="#e67e22" stroke="transparent" cx="-0.23810753" cy="-0.030079968" r="0.02" />
  <circle  fill="#2c3e50" stroke="transparent" cx="0.23810753" cy="0.030079948" r="0.02" />
  <circle  fill="#e67e22" stroke="transparent" cx="-0.2579498" cy="0.032586675" r="0.02" />
  <circle  fill="#2c3e50" stroke="transparent" cx="0.2579498" cy="-0.032586697" r="0.02" />
  <circle  fill="#e67e22" stroke="transparent" cx="-0.26033738" cy="0.10307494" r="0.02" />
  <circle  fill="#2c3e50" stroke="transparent" cx="0.26033738" cy="-0.10307497" r="0.02" />
  <circle  fill="#e67e22" stroke="transparent" cx="-0.24270509" cy="0.17633562" r="0.02" />
  <circle  fill="#2c3e50" stroke="transparent" cx="0.2427051" cy="-0.17633557" r="0.02" />
  <circle  fill="#e67e22" stroke="transparent" cx="-0.20397562" cy="0.24656427" r="0.02" />
  <circle  fill="#2c3e50" stroke="transparent" cx="0.20397565" cy="-0.24656425" r="0.02" />
  <circle  fill="#e67e22" stroke="transparent" cx="-0.14476487" cy="0.30764124" r="0.02" />
  <circle  fill="#2c3e50" stroke="transparent" cx="0.1447649" cy="-0.30764124" r="0.02" />
  <circle  fill="#e67e22" stroke="transparent" cx="-0.06745729" cy="0.3536234" r="0.02" />
  <circle  fill="#2c3e50" stroke="transparent" cx="0.06745718" cy="-0.35362342" r="0.02" />
  <circle  fill="#e67e22" stroke="transparent" cx="0.023860412" cy="0.37925014" r="0.02" />
  <circle  fill="#2c3e50" stroke="transparent" cx="-0.023860537" cy="-0.37925014" r="0.02" />
  <circle  fill="#e67e22" stroke="transparent" cx="0.12360685" cy="0.3804226" r="0.02" />
  <circle  fill="#2c3e50" stroke="transparent" cx="-0.12360698" cy="-0.38042256" r="0.02" />
  <circle  fill="#e67e22" stroke="transparent" cx="0.22504734" cy="0.35461769" r="0.02" />
  <circle  fill="#2c3e50" stroke="transparent" cx="-0.22504747" cy="-0.35461763" r="0.02" />
  <circle  fill="#e67e22" stroke="transparent" cx="0.32074633" cy="0.30120063" r="0.02" />
  <circle  fill="#2c3e50" stroke="transparent" cx="-0.32074642" cy="-0.3012005" r="0.02" />
  <circle  fill="#e67e22" stroke="transparent" cx="0.40310103" cy="0.2216067" r="0.02" />
  <circle  fill="#2c3e50" stroke="transparent" cx="-0.40310103" cy="-0.22160675" r="0.02" />
  <circle  fill="#e67e22" stroke="transparent" cx="0.4649199" cy="0.11937111" r="0.02" />
  <circle  fill="#2c3e50" stroke="transparent" cx="-0.4649199" cy="-0.11937118" r="0.02" />
  <circle  fill="#e67e22" stroke="transparent" cx="0.5" cy="-8.742278E-08" r="0.02" />
  <circle  fill="#2c3e50" stroke="transparent" cx="-0.5" cy="1.1924881E-08" r="0.02" />
  <circle  fill="#e67e22" stroke="transparent" cx="0.5036632" cy="-0.12931888" r="0.02" />
  <circle  fill="#2c3e50" stroke="transparent" cx="-0.5036632" cy="0.1293188" r="0.02" />
  <circle  fill="#e67e22" stroke="transparent" cx="0.4732055" cy="-0.26014718" r="0.02" />
  <circle  fill="#2c3e50" stroke="transparent" cx="-0.47320557" cy="0.2601471" r="0.02" />
  <circle  fill="#e67e22" stroke="transparent" cx="0.40822226" cy="-0.3833466" r="0.02" />
  <circle  fill="#2c3e50" stroke="transparent" cx="-0.4082223" cy="0.38334653" r="0.02" />
  <circle  fill="#e67e22" stroke="transparent" cx="0.31077945" cy="-0.4897102" r="0.02" />
  <circle  fill="#2c3e50" stroke="transparent" cx="-0.31077933" cy="0.48971033" r="0.02" />
  <circle  fill="#e67e22" stroke="transparent" cx="0.18541008" cy="-0.570634" r="0.02" />
  <circle  fill="#2c3e50" stroke="transparent" cx="-0.1854099" cy="0.570634" r="0.02" />
  <circle  fill="#e67e22" stroke="transparent" cx="0.038929928" cy="-0.61877656" r="0.02" />
  <circle  fill="#2c3e50" stroke="transparent" cx="-0.038929727" cy="0.6187766" r="0.02" />
  <circle  fill="#e67e22" stroke="transparent" cx="-0.11992429" cy="-0.6286638" r="0.02" />
  <circle  fill="#2c3e50" stroke="transparent" cx="0.11992451" cy="0.6286637" r="0.02" />
  <circle  fill="#e67e22" stroke="transparent" cx="-0.28101465" cy="-0.59718573" r="0.02" />
  <circle  fill="#2c3e50" stroke="transparent" cx="0.28101486" cy="0.5971857" r="0.02" />
  <circle  fill="#e67e22" stroke="transparent" cx="-0.43344864" cy="-0.5239487" r="0.02" />
  <circle  fill="#2c3e50" stroke="transparent" cx="0.4334488" cy="0.5239486" r="0.02" />
  <circle  fill="#e67e22" stroke="transparent" cx="-0.56631225" cy="-0.41144928" r="0.02" />
  <circle  fill="#2c3e50" stroke="transparent" cx="0.5663124" cy="0.4114491" r="0.02" />
  <circle  fill="#e67e22" stroke="transparent" cx="-0.669439" cy="-0.26504976" r="0.02" />
  <circle  fill="#2c3e50" stroke="transparent" cx="0.6694391" cy="0.26504952" r="0.02" />
  <circle  fill="#e67e22" stroke="transparent" cx="-0.73416483" cy="-0.09274661" r="0.02" />
  <circle  fill="#2c3e50" stroke="transparent" cx="0.73416483" cy="0.09274637" r="0.02" />
  <circle  fill="#e67e22" stroke="transparent" cx="-0.75400716" cy="0.09525331" r="0.02" />
  <circle  fill="#2c3e50" stroke="transparent" cx="0.75400716" cy="-0.095253564" r="0.02" />
  <circle  fill="#e67e22" stroke="transparent" cx="-0.72522557" cy="0.28713727" r="0.02" />
  <circle  fill="#2c3e50" stroke="transparent" cx="0.7252255" cy="-0.2871375" r="0.02" />
  <circle  fill="#e67e22" stroke="transparent" cx="-0.64721346" cy="0.4702284" r="0.02" />
  <circle  fill="#2c3e50" stroke="transparent" cx="0.64721334" cy="-0.47022858" r="0.02" />
  <circle  fill="#e67e22" stroke="transparent" cx="-0.52268744" cy="0.63182104" r="0.02" />
  <circle  fill="#2c3e50" stroke="transparent" cx="0.52268726" cy="-0.6318212" r="0.02" />
  <circle  fill="#e67e22" stroke="transparent" cx="-0.35765427" cy="0.7600549" r="0.02" />
  <circle  fill="#2c3e50" stroke="transparent" cx="0.357654" cy="-0.76005507" r="0.02" />
  <circle  fill="#e67e22" stroke="transparent" cx="-0.16114743" cy="0.84476715" r="0.02" />
  <circle  fill="#2c3e50" stroke="transparent" cx="0.16114716" cy="-0.8447672" r="0.02" />
  <circle  fill="#e67e22" stroke="transparent" cx="0.055256266" cy="0.87826353" r="0.02" />
  <circle  fill="#2c3e50" stroke="transparent" cx="-0.055256553" cy="-0.87826353" r="0.02" />
  <circle  fill="#e67e22" stroke="transparent" cx="0.278116" cy="0.85595065" r="0.02" />
  <circle  fill="#2c3e50" stroke="transparent" cx="-0.27811626" cy="-0.8559506" r="0.02" />
  <circle  fill="#e67e22" stroke="transparent" cx="0.49296057" cy="0.77678174" r="0.02" />
  <circle  fill="#2c3e50" stroke="transparent" cx="-0.49296084" cy="-0.77678156" r="0.02" />
  <circle  fill="#e67e22" stroke="transparent" cx="0.6852312" cy="0.6434736" r="0.02" />
  <circle  fill="#2c3e50" stroke="transparent" cx="-0.6852314" cy="-0.64347345" r="0.02" />
  <circle  fill="#e67e22" stroke="transparent" cx="0.8412545" cy="0.4624834" r="0.02" />
  <circle  fill="#2c3e50" stroke="transparent" cx="-0.8412546" cy="-0.4624831" r="0.02" />
  <circle  fill="#e67e22" stroke="transparent" cx="0.9492119" cy="0.24371497" r="0.02" />
  <circle  fill="#2c3e50" stroke="transparent" cx="-0.94921196" cy="-0.24371466" r="0.02" />
  <circle  fill="transparent" stroke="#27ae60" stroke-width="0.02" cx="-0.035052266" cy="0.019270148" r="0.06" />
</svg>
